<svg xmlns="http://www.w3.org/2000/svg"  viewBox="0 0 64 64" width="256px" height="256px"><linearGradient id="4POQYrP5QC3Whxve_CTlta" x1="32" x2="32" y1="6.333" y2="58.182" gradientUnits="userSpaceOnUse" spreadMethod="reflect"><stop offset="0" stop-color="#1a6dff"/><stop offset="1" stop-color="#c822ff"/></linearGradient><path fill="url(#4POQYrP5QC3Whxve_CTlta)" d="M32,58C17.663,58,6,46.337,6,32S17.663,6,32,6s26,11.663,26,26S46.337,58,32,58z M32,8 C18.767,8,8,18.767,8,32s10.767,24,24,24s24-10.767,24-24S45.233,8,32,8z"/><linearGradient id="4POQYrP5QC3Whxve_CTltb" x1="34.5" x2="34.5" y1="17.5" y2="47.317" gradientUnits="userSpaceOnUse" spreadMethod="reflect"><stop offset="0" stop-color="#6dc7ff"/><stop offset="1" stop-color="#e6abff"/></linearGradient><path fill="url(#4POQYrP5QC3Whxve_CTltb)" d="M20,43v2c0,1.105,0.895,2,2,2h25c1.105,0,2-0.895,2-2v-2c0-1.105-0.895-2-2-2H22 C20.895,41,20,41.895,20,43z"/><linearGradient id="4POQYrP5QC3Whxve_CTltc" x1="32" x2="32" y1="17.5" y2="47.317" gradientUnits="userSpaceOnUse" spreadMethod="reflect"><stop offset="0" stop-color="#6dc7ff"/><stop offset="1" stop-color="#e6abff"/></linearGradient><path fill="url(#4POQYrP5QC3Whxve_CTltc)" d="M16,27v2c0,1.105,0.895,2,2,2h28c1.105,0,2-0.895,2-2v-2c0-1.105-0.895-2-2-2H18 C16.895,25,16,25.895,16,27z"/><linearGradient id="4POQYrP5QC3Whxve_CTltd" x1="25" x2="25" y1="17.5" y2="47.317" gradientUnits="userSpaceOnUse" spreadMethod="reflect"><stop offset="0" stop-color="#6dc7ff"/><stop offset="1" stop-color="#e6abff"/></linearGradient><path fill="url(#4POQYrP5QC3Whxve_CTltd)" d="M16,19v2c0,1.105,0.895,2,2,2h14c1.105,0,2-0.895,2-2v-2c0-1.105-0.895-2-2-2H18 C16.895,17,16,17.895,16,19z"/><linearGradient id="4POQYrP5QC3Whxve_CTlte" x1="35.5" x2="35.5" y1="17.5" y2="47.317" gradientUnits="userSpaceOnUse" spreadMethod="reflect"><stop offset="0" stop-color="#6dc7ff"/><stop offset="1" stop-color="#e6abff"/></linearGradient><path fill="url(#4POQYrP5QC3Whxve_CTlte)" d="M27,35v2c0,1.105,0.895,2,2,2h13c1.105,0,2-0.895,2-2v-2c0-1.105-0.895-2-2-2H29 C27.895,33,27,33.895,27,35z"/></svg>